<svg id="Capa_1" xmlns="http://www.w3.org/2000/svg" viewBox="0 0 250.3 250.3"><style>.st0{fill:#f85c45}</style><path class="st0" d="M244.2 214.6l-54.4-54.4c-.3-.3-.6-.5-.9-.8 10.7-16.2 16.9-35.7 16.9-56.6C205.8 46.1 159.7 0 102.9 0S0 46.1 0 102.9s46.1 102.9 102.9 102.9c20.9 0 40.3-6.2 56.6-16.9.3.3.5.6.8.9l54.4 54.4c8.2 8.2 21.4 8.2 29.6 0 8.1-8.2 8.1-21.4-.1-29.6zm-141.3-44.5c-37.1 0-67.2-30.1-67.2-67.2s30.1-67.2 67.2-67.2 67.2 30.1 67.2 67.2-30.1 67.2-67.2 67.2z" id="Search"/><path class="st0" d="M130.4 90.9h-14.5V76.4c0-6.6-5.4-12-12-12h-2c-6.6 0-12 5.4-12 12v14.5H75.4c-6.6 0-12 5.4-12 12v2c0 6.6 5.4 12 12 12h14.5v14.5c0 6.6 5.4 12 12 12h2c6.6 0 12-5.4 12-12v-14.5h14.5c6.6 0 12-5.4 12-12v-2c0-6.6-5.4-12-12-12z"/></svg>